<mxfile host="app.diagrams.net" modified="2023-05-15T16:55:36.565Z" agent="Mozilla/5.0 (Windows NT 10.0; Win64; x64) AppleWebKit/537.36 (KHTML, like Gecko) Chrome/113.0.0.0 Safari/537.36" etag="689cqDkbGC9QouTNJmBT" version="21.3.2" type="device">
  <diagram name="Página-1" id="lqDHjQ5vLCpdWSQDyT20">
    <mxGraphModel dx="1533" dy="1385" grid="1" gridSize="10" guides="1" tooltips="1" connect="1" arrows="1" fold="1" page="0" pageScale="1" pageWidth="1169" pageHeight="827" math="0" shadow="0">
      <root>
        <mxCell id="0" />
        <mxCell id="1" parent="0" />
        <mxCell id="gHxe_wojSaN-GGX2REn--24" style="edgeStyle=none;curved=1;rounded=0;orthogonalLoop=1;jettySize=auto;html=1;fontSize=12;startSize=8;endSize=8;" edge="1" parent="1" source="gHxe_wojSaN-GGX2REn--17" target="gHxe_wojSaN-GGX2REn--23">
          <mxGeometry relative="1" as="geometry" />
        </mxCell>
        <mxCell id="gHxe_wojSaN-GGX2REn--17" value="S2" style="ellipse;whiteSpace=wrap;html=1;fontSize=16;" vertex="1" parent="1">
          <mxGeometry x="-340" y="-480" width="80" height="80" as="geometry" />
        </mxCell>
        <mxCell id="gHxe_wojSaN-GGX2REn--27" style="edgeStyle=none;curved=1;rounded=0;orthogonalLoop=1;jettySize=auto;html=1;fontSize=12;startSize=8;endSize=8;" edge="1" parent="1" source="gHxe_wojSaN-GGX2REn--23" target="gHxe_wojSaN-GGX2REn--26">
          <mxGeometry relative="1" as="geometry" />
        </mxCell>
        <mxCell id="gHxe_wojSaN-GGX2REn--32" style="edgeStyle=none;curved=1;rounded=0;orthogonalLoop=1;jettySize=auto;html=1;fontSize=12;startSize=8;endSize=8;" edge="1" parent="1" source="gHxe_wojSaN-GGX2REn--23" target="gHxe_wojSaN-GGX2REn--31">
          <mxGeometry relative="1" as="geometry" />
        </mxCell>
        <mxCell id="gHxe_wojSaN-GGX2REn--23" value="X" style="ellipse;whiteSpace=wrap;html=1;fontSize=16;" vertex="1" parent="1">
          <mxGeometry x="-180" y="-480" width="80" height="80" as="geometry" />
        </mxCell>
        <mxCell id="gHxe_wojSaN-GGX2REn--25" value="a" style="text;html=1;align=center;verticalAlign=middle;resizable=0;points=[];autosize=1;strokeColor=none;fillColor=none;fontSize=16;" vertex="1" parent="1">
          <mxGeometry x="-235" y="-472" width="30" height="30" as="geometry" />
        </mxCell>
        <mxCell id="gHxe_wojSaN-GGX2REn--26" value="" style="ellipse;whiteSpace=wrap;html=1;fontSize=16;" vertex="1" parent="1">
          <mxGeometry y="-480" width="80" height="80" as="geometry" />
        </mxCell>
        <mxCell id="gHxe_wojSaN-GGX2REn--28" value="b" style="text;html=1;align=center;verticalAlign=middle;resizable=0;points=[];autosize=1;strokeColor=none;fillColor=none;fontSize=16;" vertex="1" parent="1">
          <mxGeometry x="-65" y="-472" width="30" height="30" as="geometry" />
        </mxCell>
        <mxCell id="gHxe_wojSaN-GGX2REn--29" value="A" style="ellipse;whiteSpace=wrap;html=1;fontSize=16;" vertex="1" parent="1">
          <mxGeometry x="10" y="-470" width="60" height="60" as="geometry" />
        </mxCell>
        <mxCell id="gHxe_wojSaN-GGX2REn--35" style="edgeStyle=none;curved=1;rounded=0;orthogonalLoop=1;jettySize=auto;html=1;fontSize=12;startSize=8;endSize=8;" edge="1" parent="1" source="gHxe_wojSaN-GGX2REn--31" target="gHxe_wojSaN-GGX2REn--34">
          <mxGeometry relative="1" as="geometry" />
        </mxCell>
        <mxCell id="gHxe_wojSaN-GGX2REn--31" value="X1" style="ellipse;whiteSpace=wrap;html=1;fontSize=16;" vertex="1" parent="1">
          <mxGeometry x="-140" y="-650" width="80" height="80" as="geometry" />
        </mxCell>
        <mxCell id="gHxe_wojSaN-GGX2REn--33" value="b" style="text;html=1;align=center;verticalAlign=middle;resizable=0;points=[];autosize=1;strokeColor=none;fillColor=none;fontSize=16;" vertex="1" parent="1">
          <mxGeometry x="-155" y="-540" width="30" height="30" as="geometry" />
        </mxCell>
        <mxCell id="gHxe_wojSaN-GGX2REn--37" style="edgeStyle=none;curved=1;rounded=0;orthogonalLoop=1;jettySize=auto;html=1;entryX=0.938;entryY=0.188;entryDx=0;entryDy=0;entryPerimeter=0;fontSize=12;startSize=8;endSize=8;" edge="1" parent="1" source="gHxe_wojSaN-GGX2REn--34" target="gHxe_wojSaN-GGX2REn--23">
          <mxGeometry relative="1" as="geometry" />
        </mxCell>
        <mxCell id="gHxe_wojSaN-GGX2REn--34" value="X2" style="ellipse;whiteSpace=wrap;html=1;fontSize=16;" vertex="1" parent="1">
          <mxGeometry x="10" y="-650" width="80" height="80" as="geometry" />
        </mxCell>
        <mxCell id="gHxe_wojSaN-GGX2REn--36" value="c" style="text;html=1;align=center;verticalAlign=middle;resizable=0;points=[];autosize=1;strokeColor=none;fillColor=none;fontSize=16;" vertex="1" parent="1">
          <mxGeometry x="-45" y="-612" width="30" height="30" as="geometry" />
        </mxCell>
        <mxCell id="gHxe_wojSaN-GGX2REn--38" value="b" style="text;html=1;align=center;verticalAlign=middle;resizable=0;points=[];autosize=1;strokeColor=none;fillColor=none;fontSize=16;" vertex="1" parent="1">
          <mxGeometry x="-65" y="-550" width="30" height="30" as="geometry" />
        </mxCell>
        <mxCell id="gHxe_wojSaN-GGX2REn--43" style="edgeStyle=none;curved=1;rounded=0;orthogonalLoop=1;jettySize=auto;html=1;fontSize=12;startSize=8;endSize=8;" edge="1" parent="1" source="gHxe_wojSaN-GGX2REn--39" target="gHxe_wojSaN-GGX2REn--42">
          <mxGeometry relative="1" as="geometry" />
        </mxCell>
        <mxCell id="gHxe_wojSaN-GGX2REn--45" style="edgeStyle=none;curved=1;rounded=0;orthogonalLoop=1;jettySize=auto;html=1;fontSize=12;startSize=8;endSize=8;" edge="1" parent="1" source="gHxe_wojSaN-GGX2REn--39" target="gHxe_wojSaN-GGX2REn--44">
          <mxGeometry relative="1" as="geometry" />
        </mxCell>
        <mxCell id="gHxe_wojSaN-GGX2REn--55" style="edgeStyle=none;curved=1;rounded=0;orthogonalLoop=1;jettySize=auto;html=1;entryX=0.5;entryY=1;entryDx=0;entryDy=0;fontSize=12;startSize=8;endSize=8;" edge="1" parent="1" source="gHxe_wojSaN-GGX2REn--39" target="gHxe_wojSaN-GGX2REn--17">
          <mxGeometry relative="1" as="geometry" />
        </mxCell>
        <mxCell id="gHxe_wojSaN-GGX2REn--39" value="1" style="ellipse;whiteSpace=wrap;html=1;fontSize=16;" vertex="1" parent="1">
          <mxGeometry x="-340" y="-310" width="80" height="80" as="geometry" />
        </mxCell>
        <mxCell id="gHxe_wojSaN-GGX2REn--47" style="edgeStyle=none;curved=1;rounded=0;orthogonalLoop=1;jettySize=auto;html=1;fontSize=12;startSize=8;endSize=8;" edge="1" parent="1" source="gHxe_wojSaN-GGX2REn--42" target="gHxe_wojSaN-GGX2REn--39">
          <mxGeometry relative="1" as="geometry">
            <Array as="points">
              <mxPoint x="-330" y="-150" />
            </Array>
          </mxGeometry>
        </mxCell>
        <mxCell id="gHxe_wojSaN-GGX2REn--50" style="edgeStyle=none;curved=1;rounded=0;orthogonalLoop=1;jettySize=auto;html=1;fontSize=12;startSize=8;endSize=8;" edge="1" parent="1" source="gHxe_wojSaN-GGX2REn--42" target="gHxe_wojSaN-GGX2REn--44">
          <mxGeometry relative="1" as="geometry" />
        </mxCell>
        <mxCell id="gHxe_wojSaN-GGX2REn--42" value="2" style="ellipse;whiteSpace=wrap;html=1;fontSize=16;" vertex="1" parent="1">
          <mxGeometry x="-220" y="-190" width="80" height="80" as="geometry" />
        </mxCell>
        <mxCell id="gHxe_wojSaN-GGX2REn--53" style="edgeStyle=none;curved=1;rounded=0;orthogonalLoop=1;jettySize=auto;html=1;entryX=1;entryY=0.5;entryDx=0;entryDy=0;fontSize=12;startSize=8;endSize=8;exitX=0.728;exitY=0.973;exitDx=0;exitDy=0;exitPerimeter=0;" edge="1" parent="1" source="gHxe_wojSaN-GGX2REn--44" target="gHxe_wojSaN-GGX2REn--42">
          <mxGeometry relative="1" as="geometry" />
        </mxCell>
        <mxCell id="gHxe_wojSaN-GGX2REn--44" value="3" style="ellipse;whiteSpace=wrap;html=1;fontSize=16;" vertex="1" parent="1">
          <mxGeometry x="-120" y="-310" width="80" height="80" as="geometry" />
        </mxCell>
        <mxCell id="gHxe_wojSaN-GGX2REn--46" value="c" style="text;html=1;align=center;verticalAlign=middle;resizable=0;points=[];autosize=1;strokeColor=none;fillColor=none;fontSize=16;" vertex="1" parent="1">
          <mxGeometry x="-285" y="-222" width="30" height="30" as="geometry" />
        </mxCell>
        <mxCell id="gHxe_wojSaN-GGX2REn--48" value="£" style="text;html=1;align=center;verticalAlign=middle;resizable=0;points=[];autosize=1;strokeColor=none;fillColor=none;fontSize=16;" vertex="1" parent="1">
          <mxGeometry x="-325" y="-172" width="30" height="30" as="geometry" />
        </mxCell>
        <mxCell id="gHxe_wojSaN-GGX2REn--49" value="a" style="text;html=1;align=center;verticalAlign=middle;resizable=0;points=[];autosize=1;strokeColor=none;fillColor=none;fontSize=16;" vertex="1" parent="1">
          <mxGeometry x="-210" y="-310" width="30" height="30" as="geometry" />
        </mxCell>
        <mxCell id="gHxe_wojSaN-GGX2REn--51" value="b" style="text;html=1;align=center;verticalAlign=middle;resizable=0;points=[];autosize=1;strokeColor=none;fillColor=none;fontSize=16;" vertex="1" parent="1">
          <mxGeometry x="-155" y="-230" width="30" height="30" as="geometry" />
        </mxCell>
        <mxCell id="gHxe_wojSaN-GGX2REn--54" value="b" style="text;html=1;align=center;verticalAlign=middle;resizable=0;points=[];autosize=1;strokeColor=none;fillColor=none;fontSize=16;" vertex="1" parent="1">
          <mxGeometry x="-95" y="-202" width="30" height="30" as="geometry" />
        </mxCell>
        <mxCell id="gHxe_wojSaN-GGX2REn--56" value="£" style="text;html=1;align=center;verticalAlign=middle;resizable=0;points=[];autosize=1;strokeColor=none;fillColor=none;fontSize=16;" vertex="1" parent="1">
          <mxGeometry x="-330" y="-362" width="30" height="30" as="geometry" />
        </mxCell>
        <mxCell id="gHxe_wojSaN-GGX2REn--58" style="edgeStyle=none;curved=1;rounded=0;orthogonalLoop=1;jettySize=auto;html=1;fontSize=12;startSize=8;endSize=8;startArrow=classic;startFill=1;endArrow=none;endFill=0;" edge="1" parent="1">
          <mxGeometry relative="1" as="geometry">
            <mxPoint x="-340" y="-270.5" as="sourcePoint" />
            <mxPoint x="-420" y="-270.5" as="targetPoint" />
          </mxGeometry>
        </mxCell>
      </root>
    </mxGraphModel>
  </diagram>
</mxfile>
